<svg xmlns="http://www.w3.org/2000/svg" viewBox="0 0 64 64" width="64" height="64">
  <!-- Input layer -->
  <circle cx="12" cy="14" r="5" fill="#4285F4"/>
  <circle cx="12" cy="32" r="5" fill="#4285F4"/>
  <circle cx="12" cy="50" r="5" fill="#4285F4"/>
  <!-- Hidden layer -->
  <circle cx="32" cy="10" r="5" fill="#EA4335"/>
  <circle cx="32" cy="26" r="5" fill="#EA4335"/>
  <circle cx="32" cy="38" r="5" fill="#EA4335"/>
  <circle cx="32" cy="54" r="5" fill="#EA4335"/>
  <!-- Output layer -->
  <circle cx="52" cy="22" r="5" fill="#34A853"/>
  <circle cx="52" cy="42" r="5" fill="#34A853"/>
  <!-- Connections input->hidden -->
  <line x1="17" y1="14" x2="27" y2="10" stroke="#999" stroke-width="1" opacity="0.5"/>
  <line x1="17" y1="14" x2="27" y2="26" stroke="#999" stroke-width="1" opacity="0.5"/>
  <line x1="17" y1="14" x2="27" y2="38" stroke="#999" stroke-width="1" opacity="0.5"/>
  <line x1="17" y1="32" x2="27" y2="10" stroke="#999" stroke-width="1" opacity="0.5"/>
  <line x1="17" y1="32" x2="27" y2="26" stroke="#999" stroke-width="1" opacity="0.5"/>
  <line x1="17" y1="32" x2="27" y2="38" stroke="#999" stroke-width="1" opacity="0.5"/>
  <line x1="17" y1="32" x2="27" y2="54" stroke="#999" stroke-width="1" opacity="0.5"/>
  <line x1="17" y1="50" x2="27" y2="26" stroke="#999" stroke-width="1" opacity="0.5"/>
  <line x1="17" y1="50" x2="27" y2="38" stroke="#999" stroke-width="1" opacity="0.5"/>
  <line x1="17" y1="50" x2="27" y2="54" stroke="#999" stroke-width="1" opacity="0.5"/>
  <!-- Connections hidden->output -->
  <line x1="37" y1="10" x2="47" y2="22" stroke="#999" stroke-width="1" opacity="0.5"/>
  <line x1="37" y1="10" x2="47" y2="42" stroke="#999" stroke-width="1" opacity="0.5"/>
  <line x1="37" y1="26" x2="47" y2="22" stroke="#999" stroke-width="1" opacity="0.5"/>
  <line x1="37" y1="26" x2="47" y2="42" stroke="#999" stroke-width="1" opacity="0.5"/>
  <line x1="37" y1="38" x2="47" y2="22" stroke="#999" stroke-width="1" opacity="0.5"/>
  <line x1="37" y1="38" x2="47" y2="42" stroke="#999" stroke-width="1" opacity="0.5"/>
  <line x1="37" y1="54" x2="47" y2="22" stroke="#999" stroke-width="1" opacity="0.5"/>
  <line x1="37" y1="54" x2="47" y2="42" stroke="#999" stroke-width="1" opacity="0.5"/>
</svg>
